<svg xmlns="http://www.w3.org/2000/svg" width="37.5" height="37.5" viewBox="0 0 37.5 37.5">
  <path id="Icon_awesome-info-circle" data-name="Icon awesome-info-circle" d="M19.313.563a18.75,18.75,0,1,0,18.75,18.75A18.753,18.753,0,0,0,19.313.563Zm0,8.317a3.175,3.175,0,1,1-3.175,3.175A3.175,3.175,0,0,1,19.313,8.879Zm4.234,19.2a.907.907,0,0,1-.907.907H15.986a.907.907,0,0,1-.907-.907V26.268a.907.907,0,0,1,.907-.907h.907V20.522h-.907a.907.907,0,0,1-.907-.907V17.8a.907.907,0,0,1,.907-.907h4.839a.907.907,0,0,1,.907.907v7.56h.907a.907.907,0,0,1,.907.907Z" transform="translate(-0.563 -0.563)" fill="#fff"/>
</svg>
