<svg xmlns="http://www.w3.org/2000/svg" width="30.515" height="30.515" viewBox="0 0 30.515 30.515">
  <path id="Icon_awesome-file-import" data-name="Icon awesome-file-import" d="M.954,17.164A.956.956,0,0,0,0,18.118v1.907a.956.956,0,0,0,.954.954H7.629V17.164ZM30.1,6.258,24.263.417A1.429,1.429,0,0,0,23.25,0h-.364V7.629h7.629V7.265A1.426,1.426,0,0,0,30.1,6.258ZM20.979,8.105V0H9.059a1.427,1.427,0,0,0-1.43,1.43V17.164h7.629V13.279a.956.956,0,0,1,1.633-.673l5.7,5.751a1.014,1.014,0,0,1,0,1.43l-5.7,5.745a.956.956,0,0,1-1.633-.673v-3.88H7.629v8.105a1.427,1.427,0,0,0,1.43,1.43H29.084a1.427,1.427,0,0,0,1.43-1.43V9.536H22.409A1.435,1.435,0,0,1,20.979,8.105Z" fill="#fafafa"/>
</svg>
