<svg xmlns="http://www.w3.org/2000/svg" width="27.138" height="31.015" viewBox="0 0 27.138 31.015">
  <path id="Icon_awesome-skull-crossbones" data-name="Icon awesome-skull-crossbones" d="M26.6,27.444,18,23.261l8.6-4.183a.968.968,0,0,0,.433-1.3l-.867-1.734a.97.97,0,0,0-1.3-.434l-11.3,5.5-11.3-5.5a.97.97,0,0,0-1.3.434L.1,17.778a.969.969,0,0,0,.433,1.3l8.6,4.183-8.6,4.183a.969.969,0,0,0-.433,1.3L.97,30.479a.969.969,0,0,0,1.3.433l11.3-5.5,11.3,5.5a.97.97,0,0,0,1.3-.433l.867-1.734A.97.97,0,0,0,26.6,27.444ZM9.086,14.373,8.754,15.94a1.181,1.181,0,0,0,1,1.505h7.637a1.181,1.181,0,0,0,1-1.505l-.333-1.567a7.6,7.6,0,0,0,4.24-6.62C22.292,3.472,18.386,0,13.569,0S4.846,3.472,4.846,7.754A7.6,7.6,0,0,0,9.086,14.373Zm7.875-7.589a1.938,1.938,0,1,1-1.938,1.938A1.94,1.94,0,0,1,16.961,6.784Zm-6.784,0A1.938,1.938,0,1,1,8.238,8.723,1.94,1.94,0,0,1,10.177,6.784Z" transform="translate(0)" fill="#43425d"/>
</svg>
