<svg xmlns="http://www.w3.org/2000/svg" width="22.545" height="30.06" viewBox="0 0 22.545 30.06">
  <path id="Icon_awesome-file-word" data-name="Icon awesome-file-word" d="M13.151,7.985V0H1.409A1.406,1.406,0,0,0,0,1.409V28.651A1.406,1.406,0,0,0,1.409,30.06H21.136a1.406,1.406,0,0,0,1.409-1.409V9.394H14.56A1.413,1.413,0,0,1,13.151,7.985ZM16.5,15.03h1.4a.7.7,0,0,1,.687.863l-2.231,9.863a.7.7,0,0,1-.687.546H13.445a.7.7,0,0,1-.681-.534c-1.515-6.077-1.221-4.767-1.5-6.488h-.029c-.065.84-.141,1.022-1.5,6.488a.7.7,0,0,1-.681.534H6.869a.7.7,0,0,1-.687-.552L3.963,15.887a.7.7,0,0,1,.687-.857H6.088a.7.7,0,0,1,.693.569c.916,4.579,1.18,6.429,1.233,7.174.094-.6.429-1.92,1.726-7.2a.7.7,0,0,1,.687-.534h1.708a.7.7,0,0,1,.687.54c1.409,5.895,1.691,7.28,1.738,7.6-.012-.658-.153-1.045,1.268-7.585a.681.681,0,0,1,.675-.558Zm6.041-7.873v.358H15.03V0h.358a1.408,1.408,0,0,1,1,.411l5.748,5.754A1.4,1.4,0,0,1,22.545,7.157Z" fill="#4c64dd"/>
</svg>
